<svg width="77" height="77" viewBox="0 0 77 77" fill="none" xmlns="http://www.w3.org/2000/svg">
<rect width="77" height="77" fill="white"/>
<path d="M11.7045 25.8182L18.4545 36.7102H18.6591L25.4091 25.8182H29.142L20.9091 38.9091L29.142 52H25.4091L18.6591 41.3125H18.4545L11.7045 52H7.97159L16.4091 38.9091L7.97159 25.8182H11.7045ZM32.2582 36.5057V33.7443H48.0082V36.5057H32.2582ZM32.2582 44.0739V41.3125H48.0082V44.0739H32.2582ZM58.6989 44.6364V44.483C58.7159 42.8551 58.8864 41.5597 59.2102 40.5966C59.5341 39.6335 59.9943 38.8537 60.5909 38.2571C61.1875 37.6605 61.9034 37.1108 62.7386 36.608C63.2415 36.3011 63.6932 35.9389 64.0938 35.5213C64.4943 35.0952 64.8097 34.6051 65.0398 34.0511C65.2784 33.4972 65.3977 32.8835 65.3977 32.2102C65.3977 31.375 65.2017 30.6506 64.8097 30.0369C64.4176 29.4233 63.8935 28.9503 63.2372 28.6179C62.581 28.2855 61.8523 28.1193 61.0511 28.1193C60.3523 28.1193 59.679 28.2642 59.0312 28.554C58.3835 28.8437 57.8423 29.2997 57.4077 29.9219C56.973 30.544 56.7216 31.358 56.6534 32.3636H53.4318C53.5 30.9148 53.875 29.6747 54.5568 28.6435C55.2472 27.6122 56.1548 26.8239 57.2798 26.2784C58.4134 25.733 59.6705 25.4602 61.0511 25.4602C62.5511 25.4602 63.8551 25.7585 64.9631 26.3551C66.0795 26.9517 66.9403 27.7699 67.5455 28.8097C68.1591 29.8494 68.4659 31.0341 68.4659 32.3636C68.4659 33.3011 68.321 34.1491 68.0312 34.9077C67.75 35.6662 67.3409 36.3437 66.804 36.9403C66.2756 37.5369 65.6364 38.0653 64.8864 38.5256C64.1364 38.9943 63.5355 39.4886 63.0838 40.0085C62.6321 40.5199 62.304 41.1293 62.0994 41.8366C61.8949 42.544 61.7841 43.4261 61.767 44.483V44.6364H58.6989ZM60.3352 52.2045C59.7045 52.2045 59.1634 51.9787 58.7116 51.527C58.2599 51.0753 58.0341 50.5341 58.0341 49.9034C58.0341 49.2727 58.2599 48.7315 58.7116 48.2798C59.1634 47.8281 59.7045 47.6023 60.3352 47.6023C60.9659 47.6023 61.5071 47.8281 61.9588 48.2798C62.4105 48.7315 62.6364 49.2727 62.6364 49.9034C62.6364 50.321 62.5298 50.7045 62.3168 51.054C62.1122 51.4034 61.8352 51.6847 61.4858 51.8977C61.1449 52.1023 60.7614 52.2045 60.3352 52.2045Z" fill="#E4CA39"/>
</svg>
